<svg xmlns="http://www.w3.org/2000/svg" width="240" height="240" viewBox="0 0 240 240">
  <defs>
    <pattern id="grid" width="60" height="60" patternUnits="userSpaceOnUse">
      <path d="M 60 0 L 0 0 0 60" fill="none" stroke="#0891b2" stroke-width="0.6" stroke-opacity="0.18"/>
    </pattern>
    <pattern id="nodes" width="60" height="60" patternUnits="userSpaceOnUse">
      <circle cx="0" cy="0" r="1.4" fill="#10b981" fill-opacity="0.28"/>
      <circle cx="60" cy="0" r="1.4" fill="#10b981" fill-opacity="0.28"/>
      <circle cx="0" cy="60" r="1.4" fill="#10b981" fill-opacity="0.28"/>
      <circle cx="60" cy="60" r="1.4" fill="#10b981" fill-opacity="0.28"/>
    </pattern>
  </defs>
  <rect width="240" height="240" fill="url(#grid)"/>
  <rect width="240" height="240" fill="url(#nodes)"/>
  <g stroke="#0891b2" stroke-width="0.8" stroke-opacity="0.12" fill="none">
    <path d="M 0 30 L 60 30 L 60 90 L 180 90 L 180 30 L 240 30"/>
    <path d="M 0 150 L 120 150 L 120 210 L 240 210"/>
    <path d="M 30 0 L 30 60 L 90 60 L 90 180 L 150 180 L 150 240"/>
  </g>
</svg>
